<svg xmlns="http://www.w3.org/2000/svg" width="800" height="323.2"><path d="M116.8 0 0 323.2h683.2L800 0z" style="fill:#fff"/><path d="M764.1 99.5 672 294.9l15.9 15.4zM352.4 294.4 0 323.2h669.5l-16.7-15c.1 0-300.4-13.8-300.4-13.8" style="fill:#dadbdc"/><path d="m131.3 0 16.5 18.1 300.5 10.7L800 0zm-19.1 12.7L37.5 219.3l88.3-190.1c.1 0-13.6-16.5-13.6-16.5" style="fill:#f2f2f3"/><path d="M201.1 115.3h85.5v85.5h-85.5z" style="fill:#ff671b"/><path d="M375.1 158v-.5c5.8-4.1 9.2-10.9 8.9-18.1 0-16.9-12.5-24.2-29.7-24.2h-40.6v85.4h42.5c17.2 0 29.9-7.6 29.9-24.2.3-7.7-4.1-14.9-11-18.4M336 131.8h16c6.6 0 11 2.3 11 8.8s-4.1 9.5-11 9.5h-16zm16.8 52.7H336v-18.6h16.7c6.7 0 11.1 2.3 11.1 9.2.1 5.9-4 9.3-11 9.4m121.8-69.2h-25.9l-25 33.7h-1.1v-33.7h-22.2v85.5h22.2v-34.7h1.1l29.5 34.7h28.1L442 156.5zm101 0-10.4 59.9h-.9l-13.1-59.9h-22.9l-13 59.9h-.9L504 115.3h-22.7l17.7 85.5h27.6l12.8-57.4h.9l12.7 57.4h27.5l17.8-85.5z" style="fill:#141215"/></svg>