<svg xmlns="http://www.w3.org/2000/svg" width="800" height="323.2"><path d="M116.8 0 0 323.2h683.2L800 0z" style="fill:#fff"/><path d="M764.1 99.5 672 294.9l15.9 15.4zM352.4 294.4 0 323.2h669.5l-16.7-15c.1 0-300.4-13.8-300.4-13.8" style="fill:#dadbdc"/><path d="m131.3 0 16.5 18.1 300.5 10.7L800 0zm-19.1 12.7L37.5 219.3l88.3-190.1c.1 0-13.6-16.5-13.6-16.5" style="fill:#f2f2f3"/><path d="M146.1 120.9v31.5c3.9-5.6 10.4-8.8 17.2-8.5 13.4 0 20.1 8.9 20.1 22.4v32.5h-19v-27.2c0-6.2-.9-12.6-8.5-12.6s-9.9 6.4-9.9 12.6v27.2h-18.8V121h18.9zm101 54.5h-39.6c-.7 5.8 3.3 11.1 9.1 11.8q1.35.15 2.7 0c3.7.3 7.2-1.6 9-4.9h18.2c-3.1 12.6-15 18.3-27.1 18.3-17.6 0-30.7-9.9-30.7-28.3s12-28.5 29.2-28.5c18.4 0 29.1 11.5 29.1 29.5v1.9h.1zm-17.2-10.9c-1.9-6-8.4-9.4-14.4-7.4-3.5 1.1-6.3 3.9-7.4 7.4zm41.5 34.2h-18.9v-77.8h18.9zm35.7-25.8 12.6-27.2h21.1l-27.7 53.1h-12l-27.8-53.1h21.1zm87.6 2.5h-39.6c-.7 5.8 3.3 11.1 9.1 11.8q1.35.15 2.7 0c3.7.3 7.2-1.6 9-4.9H394c-3 12.6-15 18.3-27.1 18.3-17.6 0-30.7-9.9-30.7-28.3s12.1-28.4 29.3-28.4c18.4 0 29.1 11.5 29.1 29.5v1.9zm-17.5-10.9c-1.9-6-8.4-9.4-14.4-7.4-3.5 1.1-6.3 3.9-7.4 7.4zm45.2 34.2h-18.8v-37.5h-6.1v-15.5h6.1v-15.9h18.8v15.9h10.7v15.5h-10.7zm34.2-69.8c0 5.8-4.7 10.5-10.5 10.5s-10.5-4.7-10.5-10.5 4.7-10.5 10.5-10.5 10.5 4.7 10.5 10.5m-1.1 69.8h-18.8v-53.1h18.9zm67.3 0H504V193c-3.7 5.1-9.9 8-16.2 7.6-15.1-.3-27.1-12.7-26.8-27.8v-.9c-.7-14.9 10.9-27.6 25.8-28.2h.8c6.2-.2 12.2 2.4 16.5 6.9v-5.2h18.8v53.3zM480.4 172c.8 6.6 6.8 11.4 13.4 10.6 5.5-.7 9.9-5 10.6-10.6 0-6.7-5.4-12.1-12.1-12.1s-12.1 5.4-12.1 12.1z" style="fill:#141215"/><path d="m589.9 176.4-24.1 6.2 18.7-43.4 24.2-5.8z" style="fill:#422751"/><path d="m583.3 96.5 24.4-5.3 9.8 22.5-24.3 5.6z" style="fill:#5b3870"/><path d="m547.8 179.5 35.5-83 9.9 22.7-27.4 63.4z" style="fill:#74478c"/><path d="m565.8 182.6 24.1-6.2 40.5 6.8-24.1 6.4z" style="fill:#005a5f"/><path d="m616.2 212.5-76.6-13.8 8.2-19.2 58.5 10z" style="fill:#009199"/><path d="m593.2 119.2 24.3-5.6 41.6 95.4-24 6.8z" style="fill:#a50014"/><path d="m584.5 139.2 8.7-20 42 96.6-18.9-3.4c-.1.1-31.8-73.2-31.8-73.2" style="fill:#d60015"/></svg>