<svg xmlns="http://www.w3.org/2000/svg" id="Ebene_1" data-name="Ebene 1" viewBox="0 0 555.61 224.45"><defs><clipPath id="clippath"><path d="M0 0h555.61v224.45H0z" style="fill:none;stroke-width:0"/></clipPath><style>.cls-3,.cls-4,.cls-5{stroke-width:0}.cls-3{fill:#e3e3e3}.cls-4{fill:#f6f6f6}.cls-5{fill:#1d1e1c}</style></defs><path d="M81.12 0 0 224.45h474.49L555.61 0z" style="stroke-width:0;fill:#fff"/><path d="m530.64 69.1-63.97 135.75 11.02 10.69zM0 224.45h464.97l-11.58-10.43-208.64-9.58z" class="cls-3"/><path d="m91.19 0 11.49 12.58 208.72 7.43L555.61 0zM77.96 8.84 26.07 152.31 87.44 20.29z" class="cls-4"/><g style="clip-path:url(#clippath)"><path d="M218.53 116.43h16.29s.05-.02.05-.05v-5.2s-.02-.05-.05-.05h-16.29s-.05-.02-.05-.05v-5.86s.02-.05.05-.05h17.98s.05-.02.05-.05v-5.58s-.02-.05-.05-.05h-24.48s-.05.02-.05.05v28.74s.02.05.05.05h24.57s.05-.02.05-.05v-5.58s-.02-.05-.05-.05h-18.07s-.05-.02-.05-.05v-6.15s.02-.05.05-.05M171.61 112.84c-.85.76-2.17 1.04-4.05 1.04h-9.37s-.05-.02-.05-.05v-8.79s.02-.05.05-.05h9.37c1.41 0 2.45.1 3.2.47.75.38 1.32.85 1.6 1.42.28.66.47 1.51.47 2.46 0 1.7-.47 2.84-1.22 3.5m2.63-12.38c-1.6-.66-3.67-.94-6.31-.94H151.6s-.05.02-.05.05v28.74s.02.05.05.05h6.5s.05-.02.05-.05v-8.79s.02-.05.05-.05h9.74c3.76 0 6.59-.76 8.47-2.36 1.88-1.51 2.82-4.06 2.82-7.56 0-2.55-.38-4.54-1.22-5.95-.85-1.51-2.07-2.55-3.76-3.12M110.14 119.08c-.57 1.32-1.6 2.27-3.11 2.93-1.41.66-3.39 1.04-5.84 1.04s-4.42-.38-5.83-.94c-1.41-.66-2.45-1.7-3.1-3.02-.57-1.32-.94-3.02-.94-5.1s.38-3.88.94-5.2 1.6-2.27 3.11-2.93c1.41-.66 3.29-1.04 5.84-1.04s4.52.38 5.93.94c1.41.66 2.45 1.7 3.01 3.02s.94 3.03.94 5.1-.38 3.88-.94 5.2m.46-18.43c-2.45-1.13-5.65-1.7-9.41-1.7s-6.97.57-9.41 1.7c-2.45 1.04-4.24 2.74-5.46 5.01-1.22 2.17-1.79 4.92-1.79 8.22s.57 6.15 1.79 8.32c1.22 2.27 3.01 3.88 5.46 5.01s5.55 1.7 9.41 1.7 6.96-.57 9.41-1.7 4.33-2.74 5.55-5.01c1.22-2.17 1.79-4.92 1.79-8.32s-.57-6.05-1.79-8.22c-1.22-2.27-3.11-3.97-5.55-5.01M282.12 122.44V99.56s-.02-.05-.05-.05h-6.4s-.05.02-.05.05v28.74s.02.05.05.05h23.82s.05-.02.05-.05v-5.77s-.02-.05-.05-.05h-17.32s-.05-.02-.05-.05M483.62 123.17l-87.88-9.53h-.02l-24.05 12.55s-.02.07.01.07h106.17l5.78-3.02s.02-.06-.01-.07M404.03 67.72c25.36 0 45.93 20.56 45.93 45.92 0 .78-.02 1.55-.06 2.32l3.52.38c.05-.89.07-1.8.07-2.7 0-13.21-5.15-25.63-14.49-34.97s-21.76-14.48-34.97-14.48-25.63 5.14-34.97 14.48c-5.39 5.39-9.38 11.81-11.79 18.81h3.77c6.54-17.39 23.32-29.76 43-29.76" class="cls-5"/><path d="M404.03 159.57c-25.36 0-45.92-20.56-45.92-45.93 0-.78.02-1.56.06-2.33l-3.52-.38c-.05.9-.07 1.8-.07 2.71 0 13.21 5.14 25.63 14.48 34.97s21.77 14.49 34.97 14.49 25.63-5.15 34.97-14.49c5.39-5.39 9.39-11.82 11.8-18.82h-3.77c-6.54 17.4-23.33 29.77-43 29.77M412.33 113.63h.01l24.06-12.55s.02-.07-.01-.07H330.22l-5.79 3.02s-.02.06.01.07z" class="cls-5"/></g></svg>