<svg xmlns="http://www.w3.org/2000/svg" id="Ebene_1" width="800" height="323.1"><style>.st4{fill:#e1001a}</style><path d="M116.6 0 0 323.1h683.4L800 0z" style="fill:#fff"/><path d="m763.7 100.2-91.6 195.3 15.6 15.5zM352.5 294.6 0 323.1h669.5l-16.4-14.7z" style="fill:#e2e3e4"/><path d="m131.3 0 16.4 18.1 300.7 11.3L800 0zm-19 13L38 219.4l88.1-190z" style="fill:#f5f5f6"/><path d="M131.3 82.9h538.2V241H131.3z" style="fill:#ffdf00;stroke:#ffdf00;stroke-width:5.801673e-02"/><path d="M243.6 159h26.8v50.1h-26.8zm343 0h26.8v50.1h-26.8zm-63.9 0h26.8v50.1h-26.8z" class="st4"/><path d="M522.7 198.7h54.4v10.4h-54.4zm-64-39.7h26.8v50.1h-26.8z" class="st4"/><path d="M458.7 198.7h54.5v10.4h-54.5zM379.3 159H406v50.1h-26.7z" class="st4"/><path d="M386.2 198.7h55.3v10.4h-55.3zm-2.6-39.7h55.3v10.3h-55.3zm-.9 19.8H438v10.4h-55.3z" class="st4"/><path d="M608.2 147.7c7.8.9 13.8-7.8 13.8-17.3s-6-18.1-13.8-17.3H178.8V209h46.7v-61.3z" class="st4"/><path d="M289.4 159h26.8v50.1h-26.8z" class="st4"/><path d="M353.3 193.5c4.3-2.6 9.5-6 9.5-16.4 0-13-7.8-17.3-14.7-17.3H311v34.6h13.8l6.9 15.6h32.8z" class="st4"/><path d="M554.6 135.6c2.6.9 4.3-1.7 4.3-5.2s-1.7-6-4.3-6h-330v11.2zm-222.9 46.7c2.6 0 4.3-3.5 4.3-6 0-2.6-1.7-6-4.3-6h-15.6v12.1z" style="fill:#ffdf00;stroke:#ffdf00;stroke-width:5.801673e-02;stroke-miterlimit:3.8637"/></svg>