<svg xmlns="http://www.w3.org/2000/svg" width="800" height="323.2"><path d="M116.8 0 0 323.2h683.2L800 0z" style="fill:#fff"/><path d="M764.1 99.5 672 294.9l15.9 15.4zM352.4 294.4 0 323.2h669.5l-16.7-15c.1 0-300.4-13.8-300.4-13.8" style="fill:#dadbdc"/><path d="m131.3 0 16.5 18.1 300.5 10.7L800 0zm-19.1 12.7L37.5 219.3l88.3-190.1c.1 0-13.6-16.5-13.6-16.5" style="fill:#f2f2f3"/><path d="M499.2 182.2c4.1 2.9 9 4.3 14 4.1 5.4.7 10.3-3 11-8.4.1-.5.1-.9.1-1.4 0-5.2-4.6-8.2-8.7-10.5l-5.7-3.2c-9.5-5.1-13.5-11.5-13.5-19.4-.7-12 8.5-22.2 20.5-22.9h2.5c6.1-.2 12.1 1.1 17.6 3.8l-2.9 12.4c-3.6-2.9-8.2-4.4-12.8-4.2-5.1-.5-9.7 3.2-10.2 8.3 0 .3-.1.7-.1 1 0 3.8 2.3 7.1 5.7 8.5l7.2 3.8c11.5 5.7 15.3 12.2 15.3 21 0 14.4-10.3 23.3-25.9 23.3-6.1.3-12.1-.9-17.6-3.4l3-12.8zM231 172.3l-6.8-23.8c-1-3.3-2.1-8.5-2.1-8.5s-1.1 5.2-2.1 8.5l-6.8 23.8zm22.9 25h-16.3l-4-13.9h-22.9l-3.8 14.1H193l19.9-65.9c.5-1.3.8-2.6.9-4-.1-2.1-.9-4.1-2.2-5.7h18.3l24.2 75.5zm194.4-12.6-3 12.6h-37.5v-75.5h39.8l-3 12.4h-22.1V153h21.2l-2.9 12.2h-18.2v19.5zm-184-63.1h14.9v75.7h-14.9zm104.3 43.7v32.1h-15v-75.6h39.8l-2.8 12.4h-22V153h21.2l-2.8 12.2zm-54 0v32.1h-14.8v-75.6h39.8l-2.8 12.4h-22.2V153h21.2l-2.8 12.2zm280.9 19.5-3 12.6H555v-75.5h39.8l-2.9 12.4h-22.1v18.8H591l-2.9 12.2h-18.2v19.5zm-130.7-63.1h14.9v75.6h-14.9zm-317 75.6h-14.9v-76.2c12 0 19.2-.6 24.9-.6 15.5 0 26.7 6.6 26.7 22.9.3 9.3-5.8 17.6-14.8 20 1.4 1.8 2.7 3.7 3.7 5.7l13 27.9h-16.8l-14.4-30.8c-1.2-3.5-3.1-6.8-5.7-9.5h4.1c10.8 0 16-4.9 16-12.9s-5.7-11.5-14-11.5c-4.4 0-7.4.3-7.4.3v64.5h-.4zm516.9 0H659l-24.5-36.4c-4.6-6.9-9.3-14.6-9.3-14.6v51h-12.4v-63.1c.1-2.5-.3-5-1.3-7.3q-1.35-2.85-3.6-5.1h17.2l17.6 25.7c4.7 6.8 9.7 14.7 9.7 14.7s-.3-8-.3-14.7v-25.7h12.8v75.5z" style="fill:#d80015"/></svg>