<svg xmlns="http://www.w3.org/2000/svg" width="633.882" height="566.551" viewBox="0 0 167.715 149.9"><defs><clipPath id="a"><path fill="#fff" d="M0 0h98.889v89H0z"/></clipPath></defs><g fill="#da291c" clip-path="url(#a)" style="fill:none" transform="matrix(1.69704 0 0 1.69704 0 -.42)"><path d="M49.415.247A28.898 28.898 0 1 0 78.31 29.143 28.925 28.925 0 0 0 49.415.247m0 5.934a22.95 22.95 0 0 1 20.833 32.6H28.58a22.95 22.95 0 0 1 20.836-32.6M7.79 88.577c-2.999 0-6.017-1.078-7.79-2.937l3.026-3.444a7.1 7.1 0 0 0 4.823 1.949c1.706 0 2.757-.643 2.757-1.731 0-1.05-.668-1.483-2.905-2.262-3.528-1.221-6.675-2.302-6.675-6.396 0-3.864 2.996-6.38 7.82-6.38a9.83 9.83 0 0 1 6.65 2.487l-2.967 3.443a5.56 5.56 0 0 0-3.775-1.498c-1.597 0-2.544.628-2.544 1.65 0 1.542 2.571 1.863 5.11 2.98 2.836 1.237 4.564 2.673 4.564 5.796-.007 3.955-2.984 6.343-8.094 6.343m14.586 0c-3.461 0-5.093-2.316-5.093-6.41V72.64h5.115v8.868q0 2.695 2.097 2.697c1.31 0 2.247-.86 2.247-2.937v-8.628h5.122v15.457h-5.016l-.059-1.887c-.714 1.34-2.166 2.366-4.41 2.366zm11.652-15.936h5.003l.06 1.946c.759-1.377 2.254-2.425 4.343-2.425 3.412 0 5.192 2.225 5.192 6.529v9.394h-5.13V79.26q0-2.72-2.067-2.72c-1.468 0-2.276 1.006-2.276 2.935v8.628H34.03zm16.658 0h4.971l.03 2.784c.568-1.698 1.83-3.085 3.923-3.085a5.2 5.2 0 0 1 1.56.21v4.672a8.4 8.4 0 0 0-1.918-.27c-2.512 0-3.444 1.34-3.444 4.075v7.07h-5.12Zm14.71-1.268c-1.69 0-2.906-1.236-2.906-2.72 0-1.483 1.17-2.756 2.905-2.756 1.686 0 2.875 1.187 2.875 2.757a2.79 2.79 0 0 1-2.875 2.72m-2.577 1.259h5.123v15.456h-5.123Zm13.182 15.935c-2.645 0-4.927-.741-6.675-2.247l2.546-3.144a6.1 6.1 0 0 0 3.709 1.347q1.766 0 1.767-.93c0-.62-.877-.877-2.276-1.317-1.731-.542-3.064-1.024-4-1.96-.819-.82-1.182-1.835-1.182-3.193 0-3.035 2.393-4.971 6.38-4.971 2.226 0 4.297.687 5.78 2.005l-2.454 2.996c-.705-.578-2.032-.989-3.026-.989q-1.856.001-1.857.87c0 .579.742.866 2.514 1.348 3.068.83 5.063 2.198 5.063 5.191 0 3.19-2.509 5.004-6.289 5.004zm15.822 0c-6.081 0-8.507-4.066-8.507-8.207 0-5.162 3.59-8.208 8.09-8.208 4.118 0 7.416 2.472 7.416 7.728a8 8 0 0 1-.121 1.708H88.367c.28 1.882 1.612 2.967 3.775 2.967a5.54 5.54 0 0 0 3.805-1.377l2.395 3.056c-1.794 1.646-3.772 2.343-6.526 2.343zm1.948-9.916c-.034-1.555-.72-2.845-2.516-2.845q-2.367 0-2.905 2.845z"/></g></svg>