<svg xmlns="http://www.w3.org/2000/svg" width="209" height="84.43"><path d="M30.514 0 0 84.43h178.486L209 0z" style="fill:#fff"/><path d="m199.606 25.992-24.062 51.064 4.142 4.021zM92.064 76.904 0 84.43h174.903l-4.354-3.921z" style="fill:#e3e4e5"/><path d="m34.301 0 4.323 4.731 78.511 2.796L209 0zM29.324 3.323 9.807 57.295 32.891 7.632z" style="fill:#f6f6f6"/><path d="M101.408 50.835a8.74 8.74 0 0 1-6.174-2.327l2.399-2.73a5.62 5.62 0 0 0 3.823 1.543c1.352 0 2.185-.51 2.185-1.378 0-.833-.53-1.178-2.303-1.792-2.796-.969-5.297-1.825-5.297-5.07 0-3.063 2.375-5.059 6.198-5.059a7.8 7.8 0 0 1 5.272 1.971l-2.35 2.731a4.4 4.4 0 0 0-2.993-1.187c-1.267 0-2.018.498-2.018 1.306 0 1.224 2.04 1.48 4.051 2.364 2.249.99 3.619 2.118 3.619 4.594 0 3.14-2.36 5.034-6.412 5.034m11.565 0c-2.75 0-4.037-1.837-4.037-5.082v-7.551h4.06v7.029q0 2.137 1.663 2.137c1.038 0 1.781-.68 1.781-2.327v-6.84h4.061v12.254h-3.99l-.047-1.496a3.71 3.71 0 0 1-3.49 1.876m9.238-12.633h3.966l.047 1.543a3.79 3.79 0 0 1 3.443-1.923c2.705 0 4.109 1.77 4.109 5.177v7.456h-4.061V43.45q0-2.16-1.639-2.161c-1.165 0-1.804.799-1.804 2.327v6.84h-4.061zm13.203 0h3.942l.024 2.208a3.226 3.226 0 0 1 3.11-2.446c.418-.008.835.049 1.236.167v3.704a6.6 6.6 0 0 0-1.52-.214c-1.992 0-2.731 1.061-2.731 3.23v5.604h-4.06zm11.66-.998a2.177 2.177 0 1 1 0-4.345 2.164 2.164 0 0 1 2.28 2.184 2.213 2.213 0 0 1-2.264 2.162zm-2.042.998h4.06v12.253h-4.06zm10.448 12.633a7.87 7.87 0 0 1-5.295-1.78l2.018-2.494a4.83 4.83 0 0 0 2.945 1.068q1.401 0 1.401-.736c0-.5-.696-.696-1.805-1.045a7.5 7.5 0 0 1-3.17-1.555 3.34 3.34 0 0 1-.938-2.529c0-2.407 1.897-3.942 5.058-3.942 1.67-.045 3.3.52 4.583 1.591l-1.947 2.375a4.27 4.27 0 0 0-2.398-.784q-1.473 0-1.473.689c0 .483.589.687 1.995 1.068 2.43.66 4.013 1.743 4.013 4.109 0 2.527-1.989 3.965-4.987 3.965m12.539 0a6.166 6.166 0 0 1-6.744-6.506 6.15 6.15 0 0 1 6.412-6.507 5.56 5.56 0 0 1 5.889 6.127c.016.453-.016.907-.095 1.353h-8.193a2.69 2.69 0 0 0 2.992 2.351 4.39 4.39 0 0 0 3.016-1.092l1.9 2.422a7.08 7.08 0 0 1-5.177 1.852m1.543-7.86c-.027-1.233-.57-2.256-1.994-2.256q-1.877 0-2.304 2.256zM60.045 17.589c-13.6 0-24.626 11.025-24.626 24.626 0 13.6 11.025 24.626 24.626 24.626 13.6 0 24.626-11.026 24.626-24.626-.015-13.594-11.032-24.61-24.626-24.626m0 5.056c10.802-.006 19.563 8.745 19.57 19.547a19.56 19.56 0 0 1-1.814 8.237H42.29c-4.543-9.8-.282-21.427 9.518-25.97a19.56 19.56 0 0 1 8.237-1.814" style="fill:#da291c"/></svg>